{"title":"Phantasm Extended Cut","uid":5288473,"size":1012423618,"categoryP":"video","categoryS":"movies","magnet":"?xt=urn:btih:eac2950d7bfe953e4153f05455ffd006ac80ea9d&amp;dn=Phantasm+Extended+Cut&amp;tr=udp%3A%2F%2Ftracker.openbittorrent.com%3A80&amp;tr=udp%3A%2F%2Fopen.demonii.com%3A1337&amp;tr=udp%3A%2F%2Ftracker.coppersurfer.tk%3A6969&amp;tr=udp%3A%2F%2Fexodus.desync.com%3A6969","seeders":5,"leechers":0,"uploader":"kn5150","files":1,"time":1263815145,"description":"General\nComplete name                    : \\storageVideoMoviesPPhantasm Extended Cut.avi\nFormat                           : AVI\nFormat/Info                      : Audio Video Interleave\nFile size                        : 966 MiB\nDuration                         : 1h 41mn\nOverall bit rate                 : 1 327 Kbps\nMovie name                       : phantasmEC\nWriting application              : Lavf52.34.0\n\nVideo\nID                               : 0\nFormat                           : MPEG-4 Visual\nFormat profile                   : Simple@L1\nFormat settings, BVOP            : No\nFormat settings, QPel            : No\nFormat settings, GMC             : No warppoints\nFormat settings, Matrix          : Default (H.263)\nCodec ID                         : DIVX\nCodec ID/Info                    : Project Mayo\nCodec ID/Hint                    : DivX 4\nDuration                         : 1h 41mn\nBit rate                         : 1 186 Kbps\nWidth                            : 852 pixels\nHeight                           : 480 pixels\nDisplay aspect ratio             : 16:9\nFrame rate                       : 29.970 fps\nResolution                       : 24 bits\nColorimetry                      : 4:2:0\nScan type                        : Progressive\nBits/(Pixel*Frame)               : 0.097\nStream size                      : 862 MiB (89%)\nWriting library                  : Lavc52.31.2\n\nAudio\nID                               : 1\nFormat                           : MPEG Audio\nFormat version                   : Version 1\nFormat profile                   : Layer 3\nCodec ID                         : 55\nCodec ID/Hint                    : MP3\nDuration                         : 1h 41mn\nBit rate mode                    : Constant\nBit rate                         : 128 Kbps\nChannel(s)                       : 2 channels\nSampling rate                    : 48.0 KHz\nResolution                       : 16 bits\nStream size                      : 93.1 MiB (10%)\nAlignment                        : Aligned on interleaves\nInterleave, duration             : 24 ms (0.72 video frame)\n","torrent":{"xt":"urn:btih:eac2950d7bfe953e4153f05455ffd006ac80ea9d","amp;dn":"Phantasm+Extended+Cut","amp;tr":["udp%3A%2F%2Ftracker.openbittorrent.com%3A80","udp%3A%2F%2Fopen.demonii.com%3A1337","udp%3A%2F%2Ftracker.coppersurfer.tk%3A6969","udp%3A%2F%2Fexodus.desync.com%3A6969"],"infoHash":"eac2950d7bfe953e4153f05455ffd006ac80ea9d","infoHashBuffer":{"type":"Buffer","data":[234,194,149,13,123,254,149,62,65,83,240,84,85,255,208,6,172,128,234,157]},"announce":[],"urlList":[]}}